<svg aria-hidden="true" style="position: absolute; width: 0; height: 0; overflow: hidden;" version="1.1" xmlns="http://www.w3.org/2000/svg" xmlns:xlink="http://www.w3.org/1999/xlink">
<defs>
<symbol id="icon-facebook" viewBox="0 0 15 32">
<path d="M12.16 1.92c0.32 0 0.64 0 1.28 0v4.8c-0.32 0-0.96 0-1.6 0s-1.28 0-1.6 0.32c-0.32 0.32-0.32 0.64-0.32 1.387 0 0.64 0 1.067 0 1.707h3.52v4.053h-3.52v17.6h-5.44v-17.707h-2.88v-4.053h2.88v-1.387c0-2.347 0.32-4.053 0.96-4.8 0.96-1.387 2.88-2.027 5.76-2.027 0.32 0.107 0.64 0.107 0.96 0.107z"></path>
</symbol>
<symbol id="icon-Icon" viewBox="0 0 64 32">
<path stroke-linejoin="round" stroke-linecap="round" stroke-miterlimit="4" stroke-width="5.7143" d="M2.857 4.667h58.286M2.857 27.333h58.286"></path>
</symbol>
<symbol id="icon-instagram" viewBox="0 0 27 32">
<path d="M13.308 29.253c7.371 0 13.347-5.976 13.347-13.347s-5.975-13.347-13.347-13.347c-7.371 0-13.347 5.976-13.347 13.347s5.976 13.347 13.347 13.347z"></path>
</symbol>
<symbol id="icon-youtube" viewBox="0 0 43 32">
<path d="M33.486 1.714c-1.943-0.114-5.943-0.229-12-0.229h-0.8c-5.829 0-9.714 0.114-11.657 0.343-2.629 0.229-4.457 0.914-5.486 1.829-0.914 0.8-1.6 2.286-1.829 4.229-0.114 1.257-0.229 3.886-0.229 7.886v0.571c0 3.771 0.114 6.4 0.343 7.657 0.343 1.829 0.914 3.2 2.057 4 1.143 0.914 3.086 1.486 5.829 1.714 1.943 0.114 5.943 0.229 12 0.229h0.8c5.829 0 9.714-0.114 11.657-0.343 2.629-0.229 4.457-0.914 5.486-1.829 0.914-0.8 1.6-2.286 1.829-4.229 0.114-1.257 0.229-3.886 0.229-7.886v-0.571c0-3.771-0.114-6.4-0.343-7.657-0.343-1.829-0.914-3.2-2.057-4-1.143-0.914-3.086-1.486-5.829-1.714zM29.028 15.771l-12.571 7.543v-15.086l12.571 7.543z"></path>
<symbol id="icon-x" viewBox="0 0 32 32">
<path fill="none" stroke="#fbfbfb" style="stroke: var(--color1, #fbfbfb)" stroke-linejoin="round" stroke-linecap="round" stroke-miterlimit="4" stroke-width="2.4" d="M24 8l-16 16"></path>
<path fill="none" stroke="#fbfbfb" style="stroke: var(--color1, #fbfbfb)" stroke-linejoin="round" stroke-linecap="round" stroke-miterlimit="4" stroke-width="2.4" d="M8 8l16 16"></path>
</symbol>
</symbol>
</defs>
</svg>
